<svg xmlns="http://www.w3.org/2000/svg" width="52.955" height="69.692" viewBox="0 0 52.955 69.692"><defs><style>.a{fill:#f2f2f2;}</style></defs><g transform="translate(0)"><path class="a" d="M209.621,87.782H175.146a1.9,1.9,0,0,0,0,3.8h34.476a1.9,1.9,0,0,0,0-3.8Z" transform="translate(-165.911 -38.502)"/><path class="a" d="M209.621,73.493H175.146a1.9,1.9,0,0,0,0,3.8h34.476a1.9,1.9,0,0,0,0-3.8Z" transform="translate(-165.911 -33.266)"/><path class="a" d="M175.146,101.994a1.9,1.9,0,0,0,0,3.8H188.69a1.9,1.9,0,0,0,0-3.8Z" transform="translate(-165.911 -43.71)"/><path class="a" d="M222.69,101.994H209.146a1.9,1.9,0,0,0,0,3.8H222.69a1.9,1.9,0,0,0,0-3.8Z" transform="translate(-178.98 -43.71)"/><path class="a" d="M212.4,48.6a1.875,1.875,0,0,0-1.847,1.9V73.99a1.877,1.877,0,0,1-1.847,1.9H166.84a1.877,1.877,0,0,1-1.847-1.9V15.7a1.877,1.877,0,0,1,1.847-1.9h31.252V24.613a1.982,1.982,0,0,0,1.961,2.009l10.5-.03v3.63a1.848,1.848,0,1,0,3.694,0v-4.9a1.928,1.928,0,0,0-.543-1.346L200.628,10.555a1.82,1.82,0,0,0-1.3-.555H166.84a5.63,5.63,0,0,0-5.541,5.7V73.99a5.63,5.63,0,0,0,5.541,5.7H208.7a5.63,5.63,0,0,0,5.541-5.7V50.5A1.875,1.875,0,0,0,212.4,48.6Z" transform="translate(-161.299 -10)"/><path class="a" d="M243.138,47.917h0a1.875,1.875,0,0,0-1.844,1.9l.015,8.87a1.874,1.874,0,0,0,1.847,1.9h0a1.874,1.874,0,0,0,1.844-1.9l-.015-8.87A1.874,1.874,0,0,0,243.138,47.917Z" transform="translate(-192.045 -23.894)"/><g transform="translate(18.577 23.899)"><g transform="translate(0)"><path class="a" d="M51.575,49.889,44.8,59.475a.744.744,0,0,0,.619,1.17H58.935a.735.735,0,0,0,.619-1.17l-6.741-9.586a.745.745,0,0,0-1.238,0Z" transform="translate(-44.672 -49.557)"/></g></g></g></svg>