<svg xmlns="http://www.w3.org/2000/svg" width="135.153" height="27.227" viewBox="0 0 135.153 27.227"><defs><style>.a{fill:#fff;}.b{fill:#fbd015;}.c{fill:#05569e;}.d{fill:#d11f3e;}</style></defs><g transform="translate(-573 -320.162)"><path class="a" d="M585.531,333.561a.74.74,0,0,0,.433-.156.593.593,0,0,0,.206.031.674.674,0,0,0,.583-.4.541.541,0,0,0,.332-.055.62.62,0,0,0,.281-.672c.013-.008.023-.018.036-.027a.548.548,0,0,0-.007-.765.1.1,0,0,0-.02-.021.268.268,0,0,0,.117-.217c0-.157-.189-.282-.363-.282s-.362.125-.362.282v0a1.08,1.08,0,0,0-.17.093.412.412,0,0,0-.125.294.462.462,0,0,0-.081.039.428.428,0,0,0-.106.083.508.508,0,0,0-.151-.018.588.588,0,0,0-.215.046.705.705,0,0,0-.425-.129.948.948,0,0,0,.037,1.876Z"/><path class="a" d="M580.237,332.278a.34.34,0,0,0,.036.027.62.62,0,0,0,.28.672.539.539,0,0,0,.332.055.674.674,0,0,0,.583.4.6.6,0,0,0,.206-.031.735.735,0,0,0,.432.156.948.948,0,0,0,.035-1.876.717.717,0,0,0-.425.128.6.6,0,0,0-.216-.045.541.541,0,0,0-.152.017.494.494,0,0,0-.114-.082.481.481,0,0,0-.094-.039.392.392,0,0,0-.114-.294,1.032,1.032,0,0,0-.185-.093v0a.332.332,0,0,0-.347-.282.315.315,0,0,0-.332.282.261.261,0,0,0,.107.217l-.023.021A.547.547,0,0,0,580.237,332.278Z"/><path class="a" d="M583.83,337.1l.384-.581-.073-.275.3.042c.02.125.1.269.221.287a1.468,1.468,0,0,0,.324,0l.114-.133a2.445,2.445,0,0,0-.316-.248,5.89,5.89,0,0,0-.284-1.635c-.1-.289-.234-.3-.49-.264a4.5,4.5,0,0,0-.948.452l-.048.4.237.027s-.136.451-.183.613-.006.155.081.217a2.2,2.2,0,0,0,.417.139l-.094.418Z"/><path class="a" d="M583.759,332.05c-.185,0-.335-.33-.335-.738s.15-.735.335-.735.335.33.335.735S583.943,332.05,583.759,332.05Zm-.831-.046c.138.8.65.868.852.863a2.791,2.791,0,0,1-.051.5l.251.172a4.417,4.417,0,0,0,0-.809c.606-.088.729-.988.729-.988a1.146,1.146,0,0,0-.74.886,1.589,1.589,0,0,0-.159-.569.765.765,0,0,0,.436-1.321l.126-.236-.267.054-.11-.2-.2.158-.118-.158-.126.182-.236-.133.066.213a.766.766,0,0,0,.212,1.441,1.369,1.369,0,0,1,.179.647A1.759,1.759,0,0,0,582.928,332Z"/><path class="a" d="M584.427,338.55a.619.619,0,0,1,0-.492h-.921a.611.611,0,0,0,0,.492Z"/><path class="a" d="M583.506,339.7a1.079,1.079,0,0,0,0,.66h.921a1.093,1.093,0,0,1,0-.66Z"/><path class="a" d="M584.648,339.045l.205-.33h-1.409l-.155-.166H582.7l.073.166h.142l.15.33Z"/><path class="a" d="M584.635,340.528h-1.193l-.085-.165h-.31l.094.188.253.139h1.215l.245-.142.034-.185h-.2Z"/><path class="a" d="M583.8,341.616a10.475,10.475,0,0,1-3.583-4.055h7.163A10.447,10.447,0,0,1,583.8,341.616Zm-4.619-7.565h9.237a9.984,9.984,0,0,1-.9,3.25h-7.448A9.938,9.938,0,0,1,579.181,334.051Zm-.128-4.146c.073-.013.145-.016.227-.036a2.9,2.9,0,0,0,2.115.753,4.155,4.155,0,0,1,4.808,0,2.906,2.906,0,0,0,2.114-.746c.085.02.156.014.228.027a18.491,18.491,0,0,1-.127,3.87h-9.237A18.536,18.536,0,0,1,579.053,329.9Zm2.675-.418a2.9,2.9,0,0,1-.384.8,3.374,3.374,0,0,1-1.738-.487l.2-.068a4.132,4.132,0,0,1,1.728-.252C581.6,329.477,581.665,329.483,581.728,329.487Zm-3.442-.671c.471-.551.509-.739.431-.982a2.576,2.576,0,0,0-.5-.762c-.133-.134-.321-.228-.958-.031a.782.782,0,0,1-.933-.273.316.316,0,0,0,.068,0,.231.231,0,0,1,.155.017.268.268,0,0,0,.239-.056c.071-.054.051-.015.09-.015s.075-.036.2-.053a.7.7,0,0,0,.279-.147c.068.019.173-.1.233-.166s.042.032.082.007.051.021.114.029a.939.939,0,0,0,.251-.071c.11.032.3-.178.3-.178.093.009.184-.109.184-.109.141.051.229-.039.307-.121a.316.316,0,0,1,.184-.122c.075-.02.082-.059.16-.138s.07-.018.118-.008.091-.046.118.008.024.087.118.016.043.248.047.343.06.163.2.187.252-.133.252-.133a.257.257,0,0,0,.266-.1c.032-.067.052-.063.075-.02s.138.024.189-.062.081-.013.125.035a.076.076,0,0,0,.126,0c.034-.043.055.02.122-.012s.1,0,.176.036.024.1.028.149.075.086.117.165.049.06.126.1a1.847,1.847,0,0,1,.275.2.149.149,0,0,0,.233-.038c.016.069.039.184.073.184s.062-.089.087-.144c.035.048.074.036.112.05a1.116,1.116,0,0,0,.042,1.082h0c.016,0,.029-.02.041-.053a1.476,1.476,0,0,1,.016.393,1.819,1.819,0,0,0-.259.532,3.113,3.113,0,0,0-2.281.034A4.357,4.357,0,0,1,578.286,328.816Zm3.96-2.139a1.215,1.215,0,0,0,.1.338c-.015.027-.029.053-.042.082a1.072,1.072,0,0,0-.15-.429A.211.211,0,0,0,582.246,326.677Zm.155-2.519.006-.014a1.206,1.206,0,0,0,.714.516.322.322,0,0,0-.088.064.931.931,0,0,1-.428-.118c-.059-.067-.086-.126-.134-.118s0-.071-.043-.1S582.3,324.358,582.4,324.158Zm.756.059a.788.788,0,0,1,.319.3c.016.044.03.086.041.126a.736.736,0,0,0-.3-.021,1.372,1.372,0,0,0-.4-.43A.5.5,0,0,1,583.157,324.217Zm1.119,4.295.015.005a.721.721,0,0,0,.325.04,4.5,4.5,0,0,1,.355.321,3.541,3.541,0,0,0-.625.42,2.376,2.376,0,0,1-.1-.62C584.26,328.619,584.27,328.562,584.276,328.512ZM588,329.8a3.422,3.422,0,0,1-1.861.49,3.8,3.8,0,0,1-1.624-.341,3.306,3.306,0,0,1,1.554-.469,4.135,4.135,0,0,1,1.729.252C587.854,329.748,587.923,329.77,588,329.8Zm-3.236-2.66c.068-.3.122-.558.185-.515a.176.176,0,0,0,.212,0c.04-.053.052-.059.083-.005s.219.145.346-.07.09-.106.126-.024.133.117.243.031a1.847,1.847,0,0,1,.275-.2c.078-.038.082-.019.125-.1s.114-.115.118-.165-.047-.11.028-.149.109-.067.177-.036.085-.031.121.012a.076.076,0,0,0,.126,0c.043-.048.075-.121.126-.035s.164.106.187.062.044-.047.076.02a.257.257,0,0,0,.266.1s.114.157.252.133.193-.094.2-.187-.047-.413.047-.343.091.039.118-.016.071,0,.118-.008.039-.071.118.008.086.118.161.138a.322.322,0,0,1,.184.122c.079.082.166.172.306.121,0,0,.09.118.186.109,0,0,.192.21.3.178a.928.928,0,0,0,.251.071c.063-.008.075-.05.115-.029s.023-.074.081-.007.165.185.232.166a.708.708,0,0,0,.279.147c.122.017.157.053.2.053s.02-.039.091.015a.27.27,0,0,0,.24.056.227.227,0,0,1,.154-.017.373.373,0,0,0,.073,0,.784.784,0,0,1-.934.274c-.635-.2-.826-.1-.958.031a2.618,2.618,0,0,0-.5.762c-.076.243-.037.431.432.982a4.233,4.233,0,0,1-1.42-.221,3.092,3.092,0,0,0-2.31-.015c-.131.059-.252.113-.365.17-.084-.085-.293-.3-.37-.4a2.336,2.336,0,0,0,.047-.4.52.52,0,0,0-.07-.325A.525.525,0,0,1,584.761,327.135Zm9.844,2.332-1.72.652-.165.464-.386.251a13.367,13.367,0,0,0-.21-2l.621-.007,1.145-1.4-1.665.714-.15.486-1.633,1.239a12.489,12.489,0,0,1,.067,2.146l.361-.243c.156,6.8-2.955,9.365-2.955,9.365a2.809,2.809,0,0,1-.989-.629c2.837-3.162,2.707-7.732,2.7-7.9l-.3.2a15.259,15.259,0,0,0,.042-2.129l-.523.4c-.012-.467-.039-.856-.071-1.127a1.373,1.373,0,0,0,.91-.219,1.959,1.959,0,0,0,.479-1.069c.047-.259-.008-.346-.164-.448a5.592,5.592,0,0,1-.621-.534s.27-.117.9.181c.683.323,1.2.165,1.784-.7l-.7.1.061-.482a.257.257,0,0,1,.037.019,2.386,2.386,0,0,0,.584.219c.158.032.153.009.252.068s.183.083.235.058c0,0,.391.22.547,0a2.119,2.119,0,0,0,.227.118,1.235,1.235,0,0,0,.37.1.611.611,0,0,1,.235.063c.247.124.4.06.432,0s-.153-.254-.3-.376a.661.661,0,0,0-.271-.146c.048-.031.035-.079-.059-.192a1.709,1.709,0,0,0-.4-.268c0-.091-.351-.311-.562-.471s-.126-.153-.35-.384a21.773,21.773,0,0,0-1.76-1.411,13.023,13.023,0,0,0-3.111-1.818,2.773,2.773,0,0,0-2.411.016.733.733,0,0,0-.291.994,6.815,6.815,0,0,0,.366.785c.1.2.019.2-.028.229s0,.109-.042.1-.076.051-.136.118a.482.482,0,0,1-.229.086.207.207,0,0,1,.037-.166.674.674,0,0,0-.215-.061c.016-.033.078-.056.078-.056a.8.8,0,0,0-.251.008c.027-.043.051-.05.051-.05a.351.351,0,0,0-.349.134,1.214,1.214,0,0,0-.243-.29c-.094-.088-.142-.213-.242-.311a.277.277,0,0,0,.023-.249.541.541,0,0,0-.312-.247.139.139,0,0,0,.071-.136c-.012-.094-.1-.129-.2-.1a.685.685,0,0,0-.276.094.711.711,0,0,1-.138,0,.693.693,0,0,0-.327-.884,2.772,2.772,0,0,0-2.411-.016,13.034,13.034,0,0,0-3.11,1.818,21.722,21.722,0,0,0-1.759,1.411c-.225.231-.138.223-.349.384s-.567.38-.563.471a1.729,1.729,0,0,0-.4.268c-.094.113-.106.161-.06.192a.668.668,0,0,0-.27.146c-.146.122-.334.317-.3.376s.184.124.432,0a.611.611,0,0,1,.235-.063,1.228,1.228,0,0,0,.37-.1,2.069,2.069,0,0,0,.228-.118c.157.22.546,0,.546,0,.051.025.138,0,.235-.058s.095-.036.251-.068a2.332,2.332,0,0,0,.586-.219.174.174,0,0,1,.04-.021l.063.484-.7-.1c.581.864,1.1,1.022,1.783.7.634-.3.9-.181.9-.181a5.688,5.688,0,0,1-.621.534c-.157.1-.212.189-.165.448a1.96,1.96,0,0,0,.48,1.069,1.373,1.373,0,0,0,.91.219c-.032.271-.059.66-.072,1.127l-.528-.4a15.324,15.324,0,0,0,.042,2.133l-.3-.2c-.007.164-.136,4.734,2.7,7.9a2.839,2.839,0,0,1-.99.629s-3.112-2.56-2.954-9.365l.361.243a12.532,12.532,0,0,1,.066-2.149l-1.629-1.236-.15-.486-1.664-.714,1.146,1.4.62.007a13.287,13.287,0,0,0-.212,2l-.384-.251-.165-.464L573,329.467l1.216,1.359.6-.038s-.619,6.024,1.426,9.265c1.7,2.7,4.182,2.719,6.438,1.2a14.756,14.756,0,0,1-1.115,2.476,6.149,6.149,0,0,1,.911.08s-.093.392-.143.51-.04.32.192.331.535.036.535.036-.041.283-.048.434c-.006.2-.026.287.783.321.847-.034.792-.119.783-.321-.006-.151-.045-.434-.045-.434s.3-.029.536-.036.24-.209.191-.331-.145-.51-.145-.51a6.176,6.176,0,0,1,.912-.08,15.042,15.042,0,0,1-1.117-2.476c2.258,1.515,4.737,1.5,6.442-1.2,2.045-3.241,1.425-9.265,1.425-9.265l.605.038Z"/><path class="a" d="M622.194,328.789a7.43,7.43,0,0,0-5.028-2c-4.363,0-6.891,3.272-6.864,7.21,0,3.4,2.022,6.7,6.864,6.7a6.655,6.655,0,0,0,4.549-1.649V335.28h-5.188v-2.661h7.955v7.636a9.372,9.372,0,0,1-7.316,3.246c-6.838,0-9.791-4.55-9.791-9.5,0-5.374,3.432-9.95,9.791-9.95a9.79,9.79,0,0,1,6.89,2.82Z"/><path class="a" d="M636.4,340.749c4.649,0,6.6-3.286,6.6-6.865,0-3.446-1.977-7.026-6.545-7.106-4.328,0-6.652,3.018-6.652,7.106C629.85,337.2,631.774,340.749,636.4,340.749Zm9.564-6.919c0,5.049-3.072,9.671-9.564,9.671s-9.563-4.729-9.563-9.644c0-5.69,3.98-9.8,9.617-9.8C642.833,324.079,645.959,328.781,645.959,333.83Z"/><path class="a" d="M657.669,343.5h-3.227l-8.026-19.389h3.475l6.15,15.693,6.178-15.693h3.447Z"/><path class="a" d="M667.686,341.544a1.949,1.949,0,1,1-3.9,0A1.949,1.949,0,0,1,667.686,341.544Z"/><path class="a" d="M686.565,340.715a9.829,9.829,0,0,1-7.046,2.786c-6.8,0-9.858-4.688-9.884-9.617s3.187-9.831,9.884-9.831a9.584,9.584,0,0,1,6.858,2.839l-2.009,1.929a6.891,6.891,0,0,0-4.849-1.929c-4.768,0-6.938,3.51-6.911,6.965.027,3.429,2.063,6.831,6.911,6.831a7.268,7.268,0,0,0,4.983-2.036Z"/><path class="a" d="M698.618,340.758c4.635,0,6.579-3.276,6.579-6.845,0-3.435-1.971-7-6.525-7.084-4.315,0-6.632,3.009-6.632,7.084C692.094,337.216,694.011,340.758,698.618,340.758Zm9.535-6.9c0,5.033-3.063,9.641-9.535,9.641s-9.534-4.714-9.534-9.615c0-5.672,3.968-9.774,9.588-9.774C705.037,324.139,708.153,328.826,708.153,333.86Z"/><rect class="b" width="2.093" height="11.669" transform="translate(599.595 320.162)"/><rect class="c" width="2.093" height="7.779" transform="translate(599.595 331.83)"/><rect class="d" width="2.093" height="7.78" transform="translate(599.595 339.609)"/></g></svg>