<svg xmlns="http://www.w3.org/2000/svg" xmlns:xlink="http://www.w3.org/1999/xlink" width="115.926" height="65" viewBox="0 0 115.926 65"><defs><style>.a,.e{fill:none;}.b{fill:#20479e;}.c{fill:#ed1c24;}.d{clip-path:url(#a);}.e{stroke:#ed1c24;stroke-width:0.539px;}</style><clipPath id="a"><rect class="a" width="115.864" height="0.623"/></clipPath></defs><g transform="translate(-1092.634 196.566)"><g transform="translate(1092.634 -196.566)"><path class="b" d="M1187.048-190.438a3.969,3.969,0,0,0-3.895-3.968v0h-16.04v.005c-.039,0-.077-.005-.116-.005a3.97,3.97,0,0,0-3.97,3.971,3.971,3.971,0,0,0,3.97,3.972c.039,0,.077-.005.116-.006v.005h16.04v0a3.97,3.97,0,0,0,3.895-3.968" transform="translate(-1102.02 196.278)"/><path class="b" d="M1122.544-190.378a3.968,3.968,0,0,0-3.968-3.968c-.049,0-.1.005-.146.007v-.07h-9.079v.068c-7.531.081-13.613,7.06-13.613,15.661,0,8.651,6.11,15.6,13.7,15.6v-.023h9.043a3.928,3.928,0,0,0,3.968-3.942c0-2.152-3.863-3.962-3.863-3.962v-.039h-9.769v-.006c-3.462,0-6.273-3.477-6.273-7.7s2.8-7.708,6.266-7.708l9.9,0a3.968,3.968,0,0,0,3.968-3.968" transform="translate(-1093.048 196.278)"/><path class="b" d="M1155.774-184.461c0-5.495-4.108-9.948-9.176-9.948h-10.822a3.971,3.971,0,0,0-3.971,3.971,3.971,3.971,0,0,0,3.971,3.972h10.519a2.023,2.023,0,0,1,1.993,2.023,2.026,2.026,0,0,1-2.025,2.025h-.008l-6.824-.016a4.04,4.04,0,0,0-3.962,4.123,4.586,4.586,0,0,0,1.872,3.506l12.116,10.585a3.507,3.507,0,0,0,2.5,1.074,3.877,3.877,0,0,0,3.692-4.039,4.19,4.19,0,0,0-1.274-3.046l.009-.011-5.331-4.63a9.859,9.859,0,0,0,6.722-9.585" transform="translate(-1097.857 196.278)"/><path class="b" d="M1222.253-190.353a3.98,3.98,0,0,0-3.968-3.993c-.049,0-.1.005-.146.007v-.07h-10.113c-6.816.283-12.7,7.4-12.7,15.651,0,8.644,6.149,15.652,13.735,15.652v0l9.051,0a3.932,3.932,0,0,0,3.917-3.966c0-.055,0-12.11,0-12.11s0-.042,0-.065a3.328,3.328,0,0,0-3.333-3.322h-9.435v0a3.985,3.985,0,0,0-3.941,3.969,3.984,3.984,0,0,0,3.941,3.968v0h6.23v3.582h-7.1v-.006c-3.437,0-6.216-3.452-6.216-7.65s2.786-7.6,6.223-7.6c.027,0,.054-.005.081-.006h9.746a3.981,3.981,0,0,0,3.968-3.993" transform="translate(-1106.327 196.278)"/><path class="b" d="M1187.048-176.781a3.97,3.97,0,0,0-3.895-3.968v0h-16.04v.005c-.039,0-.077-.006-.116-.006a3.971,3.971,0,0,0-3.97,3.972,3.97,3.97,0,0,0,3.97,3.971c.039,0,.077,0,.116-.006v.006h16.04v0a3.969,3.969,0,0,0,3.895-3.968" transform="translate(-1102.02 194.458)"/><path class="b" d="M1187.048-163.485a3.969,3.969,0,0,0-3.895-3.968v0h-16.04v.005c-.039,0-.077-.006-.116-.006a3.971,3.971,0,0,0-3.97,3.971,3.971,3.971,0,0,0,3.97,3.972h16.156v0a3.968,3.968,0,0,0,3.895-3.968" transform="translate(-1102.02 192.685)"/><path class="c" d="M1119.566-192.6a3.968,3.968,0,0,0-3.968-3.968h-9.332v0c-7.541.081-13.632,7.07-13.632,15.682,0,8.663,6.119,15.617,13.72,15.617v0l9.055.007a3.973,3.973,0,0,0,3.974-3.973,3.971,3.971,0,0,0-3.858-3.968v-.009h-9.769v-.005c-3.461,0-6.273-3.477-6.273-7.7s2.8-7.707,6.267-7.707l9.849,0a3.968,3.968,0,0,0,3.968-3.968" transform="translate(-1092.634 196.566)"/><path class="c" d="M1152.661-186.618c0-5.494-4.109-9.948-9.176-9.948h-10.822a3.971,3.971,0,0,0-3.971,3.972,3.971,3.971,0,0,0,3.971,3.972h10.519a2.023,2.023,0,0,1,1.993,2.022,2.025,2.025,0,0,1-2.025,2.025l-.008,0-6.824-.016a4.04,4.04,0,0,0-3.962,4.123,4.584,4.584,0,0,0,1.872,3.5l12.115,10.586a3.51,3.51,0,0,0,2.5,1.074,3.878,3.878,0,0,0,3.692-4.039,4.193,4.193,0,0,0-1.274-3.047l.009-.01-5.331-4.63a9.859,9.859,0,0,0,6.722-9.585" transform="translate(-1097.442 196.566)"/><path class="c" d="M1183.994-192.594a3.968,3.968,0,0,0-3.895-3.968v0h-16.04v.005c-.039,0-.077-.006-.116-.006a3.97,3.97,0,0,0-3.969,3.972,3.97,3.97,0,0,0,3.969,3.972c.039,0,.077-.005.116-.006v.005h16.04v0a3.968,3.968,0,0,0,3.895-3.968" transform="translate(-1101.613 196.566)"/><path class="c" d="M1183.994-179.117a3.969,3.969,0,0,0-3.895-3.968v0h-16.04v.005c-.039,0-.077-.006-.116-.006a3.97,3.97,0,0,0-3.969,3.972,3.97,3.97,0,0,0,3.969,3.971c.039,0,.077,0,.116-.006v.006h16.04v0a3.969,3.969,0,0,0,3.895-3.968" transform="translate(-1101.613 194.769)"/><path class="c" d="M1183.994-165.641a3.968,3.968,0,0,0-3.895-3.968v0h-16.04v.006c-.039,0-.077-.006-.116-.006a3.97,3.97,0,0,0-3.969,3.971,3.97,3.97,0,0,0,3.969,3.972c.039,0,.077-.005.116-.006v.005h16.04v0a3.969,3.969,0,0,0,3.895-3.968" transform="translate(-1101.613 192.972)"/><path class="c" d="M1219.067-192.572a3.98,3.98,0,0,0-3.968-3.993h-10.272c-6.815.283-12.7,7.4-12.7,15.651,0,8.644,6.149,15.652,13.735,15.652v0l8.988,0a3.964,3.964,0,0,0,3.948-4c0-.055,0-12.249,0-12.271a3.354,3.354,0,0,0-3.36-3.349h-9.252v0a3.985,3.985,0,0,0-3.942,3.97,3.985,3.985,0,0,0,3.942,3.97l6.229,0v3.734h-7.174v-.005c-3.473,0-6.279-3.487-6.279-7.728s2.815-7.678,6.287-7.678c.027,0,.054-.005.081-.006h9.767a3.981,3.981,0,0,0,3.968-3.993" transform="translate(-1105.9 196.566)"/></g><g transform="translate(1092.665 -158.567)"><g class="d"><line class="e" x2="115.864" transform="translate(0 0.234)"/></g></g><g transform="translate(1093.047 -154.556)"><path class="b" d="M1099.061-142.818l1.047.264a3.527,3.527,0,0,1-1.185,1.968,3.266,3.266,0,0,1-2.092.678,3.757,3.757,0,0,1-2.081-.522,3.249,3.249,0,0,1-1.22-1.509,5.382,5.382,0,0,1-.419-2.122,4.669,4.669,0,0,1,.472-2.157,3.24,3.24,0,0,1,1.344-1.4,3.925,3.925,0,0,1,1.92-.478,3.245,3.245,0,0,1,2,.6,3.141,3.141,0,0,1,1.128,1.7l-1.031.243a2.45,2.45,0,0,0-.8-1.258,2.131,2.131,0,0,0-1.317-.393,2.56,2.56,0,0,0-1.525.437,2.312,2.312,0,0,0-.861,1.174,4.709,4.709,0,0,0-.249,1.52,4.821,4.821,0,0,0,.295,1.763,2.195,2.195,0,0,0,.914,1.126,2.573,2.573,0,0,0,1.345.372,2.254,2.254,0,0,0,1.49-.507A2.6,2.6,0,0,0,1099.061-142.818Z" transform="translate(-1093.111 148.093)"/><path class="b" d="M1101.921-142.574a2.954,2.954,0,0,1,.886-2.359,2.668,2.668,0,0,1,1.8-.637,2.573,2.573,0,0,1,1.933.774,2.951,2.951,0,0,1,.75,2.141,3.783,3.783,0,0,1-.333,1.741,2.348,2.348,0,0,1-.966.985,2.811,2.811,0,0,1-1.384.351,2.579,2.579,0,0,1-1.947-.771A3.085,3.085,0,0,1,1101.921-142.574Zm1,0a2.444,2.444,0,0,0,.48,1.649,1.54,1.54,0,0,0,1.21.548,1.533,1.533,0,0,0,1.2-.55,2.5,2.5,0,0,0,.48-1.68,2.372,2.372,0,0,0-.483-1.611,1.539,1.539,0,0,0-1.2-.548,1.543,1.543,0,0,0-1.21.545A2.434,2.434,0,0,0,1102.92-142.574Z" transform="translate(-1094.286 147.757)"/><path class="b" d="M1109.243-139.707v-5.734h.869v.8a2.042,2.042,0,0,1,.718-.678,2.02,2.02,0,0,1,1.021-.256,1.883,1.883,0,0,1,1.044.264,1.414,1.414,0,0,1,.575.739,2.06,2.06,0,0,1,1.771-1,1.742,1.742,0,0,1,1.311.472,2.018,2.018,0,0,1,.459,1.454v3.936h-.966v-3.612a2.685,2.685,0,0,0-.094-.84.814.814,0,0,0-.343-.413,1.073,1.073,0,0,0-.583-.157,1.357,1.357,0,0,0-1,.4,1.77,1.77,0,0,0-.4,1.288v3.331h-.973v-3.726a1.637,1.637,0,0,0-.237-.972.9.9,0,0,0-.777-.324,1.414,1.414,0,0,0-.758.216,1.228,1.228,0,0,0-.5.632,3.54,3.54,0,0,0-.157,1.2v2.975Z" transform="translate(-1095.262 147.757)"/><path class="b" d="M1119.685-146.82v-1.118h.971v1.118Zm0,6.8v-5.734h.971v5.734Z" transform="translate(-1096.654 148.072)"/><path class="b" d="M1121.873-141.419l.961-.152a1.341,1.341,0,0,0,.451.886,1.57,1.57,0,0,0,1.034.308,1.521,1.521,0,0,0,.994-.272.816.816,0,0,0,.323-.64.591.591,0,0,0-.286-.518,4.271,4.271,0,0,0-.993-.329,9.1,9.1,0,0,1-1.482-.466,1.438,1.438,0,0,1-.627-.546,1.44,1.44,0,0,1-.213-.769,1.476,1.476,0,0,1,.176-.71,1.575,1.575,0,0,1,.478-.543,2.028,2.028,0,0,1,.618-.283,2.95,2.95,0,0,1,.84-.115,3.307,3.307,0,0,1,1.185.194,1.609,1.609,0,0,1,.753.526,2.067,2.067,0,0,1,.335.888l-.951.129a1.039,1.039,0,0,0-.375-.691,1.372,1.372,0,0,0-.877-.249,1.591,1.591,0,0,0-.956.222.645.645,0,0,0-.286.518.537.537,0,0,0,.119.34.851.851,0,0,0,.373.259q.146.055.859.249a12.025,12.025,0,0,1,1.439.451,1.462,1.462,0,0,1,.64.51,1.427,1.427,0,0,1,.232.831,1.631,1.631,0,0,1-.283.915,1.83,1.83,0,0,1-.818.664,2.971,2.971,0,0,1-1.209.235,2.692,2.692,0,0,1-1.7-.465A2.158,2.158,0,0,1,1121.873-141.419Z" transform="translate(-1096.946 147.757)"/><path class="b" d="M1128.516-146.82v-1.118h.972v1.118Zm0,6.8v-5.734h.972v5.734Z" transform="translate(-1097.832 148.072)"/><path class="b" d="M1130.735-142.9a2.955,2.955,0,0,1,.886-2.359,2.668,2.668,0,0,1,1.8-.637,2.571,2.571,0,0,1,1.933.774,2.948,2.948,0,0,1,.75,2.141,3.784,3.784,0,0,1-.332,1.741,2.349,2.349,0,0,1-.966.985,2.812,2.812,0,0,1-1.385.351,2.578,2.578,0,0,1-1.946-.771A3.085,3.085,0,0,1,1130.735-142.9Zm1,0a2.44,2.44,0,0,0,.48,1.649,1.538,1.538,0,0,0,1.209.548,1.534,1.534,0,0,0,1.2-.55,2.506,2.506,0,0,0,.48-1.68,2.368,2.368,0,0,0-.484-1.611,1.536,1.536,0,0,0-1.2-.548,1.541,1.541,0,0,0-1.209.545A2.429,2.429,0,0,0,1131.734-142.9Zm1.149-3.579.719-1.512h1.274l-1.187,1.512Z" transform="translate(-1098.127 148.079)"/><path class="b" d="M1138.056-139.707v-5.734h.875v.816a2.059,2.059,0,0,1,1.824-.945,2.4,2.4,0,0,1,.953.185,1.507,1.507,0,0,1,.65.489,1.874,1.874,0,0,1,.3.718,5.51,5.51,0,0,1,.054.945v3.526h-.972V-143.2a2.6,2.6,0,0,0-.114-.887.935.935,0,0,0-.4-.47,1.279,1.279,0,0,0-.678-.176,1.575,1.575,0,0,0-1.071.394,1.943,1.943,0,0,0-.451,1.5v3.131Z" transform="translate(-1099.104 147.757)"/><path class="b" d="M1151.98-140.023v-.724a1.784,1.784,0,0,1-1.6.853,2.246,2.246,0,0,1-1.261-.378,2.48,2.48,0,0,1-.891-1.056,3.648,3.648,0,0,1-.315-1.557,4.079,4.079,0,0,1,.286-1.557,2.258,2.258,0,0,1,.858-1.072,2.3,2.3,0,0,1,1.28-.372,1.914,1.914,0,0,1,.923.218,1.929,1.929,0,0,1,.659.569v-2.84h.966v7.915Zm-3.072-2.862a2.49,2.49,0,0,0,.464,1.647,1.4,1.4,0,0,0,1.1.545,1.374,1.374,0,0,0,1.082-.521A2.4,2.4,0,0,0,1152-142.8a2.7,2.7,0,0,0-.453-1.728,1.4,1.4,0,0,0-1.117-.55,1.344,1.344,0,0,0-1.082.529A2.608,2.608,0,0,0,1148.907-142.884Z" transform="translate(-1100.417 148.072)"/><path class="b" d="M1159.092-141.554l1,.125a2.455,2.455,0,0,1-.88,1.366,2.65,2.65,0,0,1-1.641.485,2.623,2.623,0,0,1-2-.775,3.026,3.026,0,0,1-.737-2.173,3.167,3.167,0,0,1,.745-2.246,2.523,2.523,0,0,1,1.933-.8,2.454,2.454,0,0,1,1.879.783,3.112,3.112,0,0,1,.728,2.2c0,.058,0,.145-.005.259h-4.275a2.2,2.2,0,0,0,.534,1.447,1.592,1.592,0,0,0,1.2.5,1.488,1.488,0,0,0,.913-.281A1.858,1.858,0,0,0,1159.092-141.554Zm-3.19-1.571h3.2a1.943,1.943,0,0,0-.368-1.085,1.488,1.488,0,0,0-1.2-.562,1.544,1.544,0,0,0-1.126.449A1.77,1.77,0,0,0,1155.9-143.125Z" transform="translate(-1101.342 147.757)"/><path class="b" d="M1165.637-140.023v-7.915h3.509a4.668,4.668,0,0,1,1.609.213,1.762,1.762,0,0,1,.88.753,2.252,2.252,0,0,1,.329,1.193,1.994,1.994,0,0,1-.545,1.42,2.767,2.767,0,0,1-1.685.734,2.707,2.707,0,0,1,.632.393,5.448,5.448,0,0,1,.869,1.053l1.376,2.155h-1.317l-1.047-1.647q-.459-.714-.756-1.091a2.384,2.384,0,0,0-.532-.529,1.584,1.584,0,0,0-.478-.211,3.149,3.149,0,0,0-.583-.038h-1.215v3.515Zm1.047-4.422h2.252a3.361,3.361,0,0,0,1.123-.149,1.192,1.192,0,0,0,.615-.475,1.284,1.284,0,0,0,.211-.71,1.178,1.178,0,0,0-.408-.923,1.905,1.905,0,0,0-1.287-.362h-2.506Z" transform="translate(-1102.781 148.072)"/><path class="b" d="M1178.372-141.554l1,.125a2.455,2.455,0,0,1-.88,1.366,2.65,2.65,0,0,1-1.641.485,2.622,2.622,0,0,1-1.995-.775,3.029,3.029,0,0,1-.737-2.173,3.17,3.17,0,0,1,.745-2.246,2.522,2.522,0,0,1,1.933-.8,2.453,2.453,0,0,1,1.879.783,3.112,3.112,0,0,1,.729,2.2c0,.058,0,.145-.006.259h-4.275a2.2,2.2,0,0,0,.534,1.447,1.593,1.593,0,0,0,1.2.5,1.486,1.486,0,0,0,.912-.281A1.864,1.864,0,0,0,1178.372-141.554Zm-3.191-1.571h3.2a1.944,1.944,0,0,0-.367-1.085,1.489,1.489,0,0,0-1.2-.562,1.54,1.54,0,0,0-1.125.449A1.765,1.765,0,0,0,1175.181-143.125Z" transform="translate(-1103.913 147.757)"/><path class="b" d="M1181.165-139.232l.945.14a.9.9,0,0,0,.329.637,1.618,1.618,0,0,0,.988.27,1.737,1.737,0,0,0,1.043-.27,1.332,1.332,0,0,0,.5-.756,6.232,6.232,0,0,0,.07-1.247,2,2,0,0,1-1.588.751,2.162,2.162,0,0,1-1.83-.854,3.282,3.282,0,0,1-.648-2.046,3.8,3.8,0,0,1,.3-1.514,2.371,2.371,0,0,1,.861-1.071,2.324,2.324,0,0,1,1.326-.378,2.056,2.056,0,0,1,1.673.82v-.691h.9v4.956a4.689,4.689,0,0,1-.273,1.9,1.994,1.994,0,0,1-.864.883,2.992,2.992,0,0,1-1.454.324,2.746,2.746,0,0,1-1.658-.462A1.562,1.562,0,0,1,1181.165-139.232Zm.8-3.444a2.487,2.487,0,0,0,.448,1.646,1.423,1.423,0,0,0,1.123.518,1.438,1.438,0,0,0,1.123-.515,2.407,2.407,0,0,0,.453-1.617,2.35,2.35,0,0,0-.467-1.588,1.443,1.443,0,0,0-1.126-.534,1.4,1.4,0,0,0-1.1.526A2.337,2.337,0,0,0,1181.969-142.676Z" transform="translate(-1104.826 147.757)"/><path class="b" d="M1192.059-139.687v-.842a2.1,2.1,0,0,1-1.819.972,2.324,2.324,0,0,1-.947-.194,1.558,1.558,0,0,1-.653-.489,1.836,1.836,0,0,1-.3-.72,4.994,4.994,0,0,1-.059-.907v-3.552h.972v3.18a5.644,5.644,0,0,0,.06,1.026,1.011,1.011,0,0,0,.388.6,1.2,1.2,0,0,0,.734.219,1.593,1.593,0,0,0,.821-.224,1.242,1.242,0,0,0,.543-.61,3.052,3.052,0,0,0,.159-1.12v-3.072h.971v5.734Z" transform="translate(-1105.8 147.737)"/><path class="b" d="M1195.184-140.023v-7.915h.972v7.915Z" transform="translate(-1106.721 148.072)"/><path class="b" d="M1201.543-140.414a3.606,3.606,0,0,1-1.039.647,2.992,2.992,0,0,1-1.072.189,2.086,2.086,0,0,1-1.453-.461,1.526,1.526,0,0,1-.507-1.18,1.573,1.573,0,0,1,.192-.769,1.579,1.579,0,0,1,.5-.559,2.385,2.385,0,0,1,.7-.319,6.955,6.955,0,0,1,.864-.146,8.841,8.841,0,0,0,1.732-.335c0-.133.006-.218.006-.254a1.071,1.071,0,0,0-.276-.836,1.624,1.624,0,0,0-1.107-.329,1.713,1.713,0,0,0-1.012.24,1.473,1.473,0,0,0-.484.85l-.95-.129a2.356,2.356,0,0,1,.426-.985,1.868,1.868,0,0,1,.859-.578,3.82,3.82,0,0,1,1.3-.2,3.447,3.447,0,0,1,1.193.172,1.573,1.573,0,0,1,.674.434,1.527,1.527,0,0,1,.3.662,5.388,5.388,0,0,1,.049.9v1.3a13.7,13.7,0,0,0,.062,1.714,2.149,2.149,0,0,0,.245.688h-1.015A2.067,2.067,0,0,1,1201.543-140.414Zm-.082-2.171a7.063,7.063,0,0,1-1.587.367,3.656,3.656,0,0,0-.848.194.841.841,0,0,0-.383.316.828.828,0,0,0-.135.461.83.83,0,0,0,.294.648,1.27,1.27,0,0,0,.862.259,2,2,0,0,0,1-.246,1.507,1.507,0,0,0,.643-.672,2.354,2.354,0,0,0,.156-.972Z" transform="translate(-1107.026 147.757)"/><path class="b" d="M1208.452-141.808l.955.125a2.475,2.475,0,0,1-.8,1.547,2.337,2.337,0,0,1-1.584.558,2.461,2.461,0,0,1-1.892-.77,3.115,3.115,0,0,1-.716-2.2,4,4,0,0,1,.308-1.625,2.148,2.148,0,0,1,.937-1.045,2.777,2.777,0,0,1,1.368-.348,2.376,2.376,0,0,1,1.528.472,2.166,2.166,0,0,1,.762,1.342l-.946.146a1.565,1.565,0,0,0-.478-.869,1.238,1.238,0,0,0-.828-.292,1.509,1.509,0,0,0-1.193.527,2.5,2.5,0,0,0-.458,1.666,2.586,2.586,0,0,0,.442,1.679,1.441,1.441,0,0,0,1.156.523,1.36,1.36,0,0,0,.955-.351A1.741,1.741,0,0,0,1208.452-141.808Z" transform="translate(-1107.951 147.757)"/><path class="b" d="M1210.95-146.82v-1.118h.972v1.118Zm0,6.8v-5.734h.972v5.734Z" transform="translate(-1108.823 148.072)"/><path class="b" d="M1213.169-142.9a2.954,2.954,0,0,1,.886-2.359,2.667,2.667,0,0,1,1.8-.637,2.574,2.574,0,0,1,1.934.774,2.951,2.951,0,0,1,.75,2.141,3.786,3.786,0,0,1-.332,1.741,2.348,2.348,0,0,1-.966.985,2.812,2.812,0,0,1-1.385.351,2.578,2.578,0,0,1-1.946-.771A3.085,3.085,0,0,1,1213.169-142.9Zm1,0a2.44,2.44,0,0,0,.48,1.649,1.539,1.539,0,0,0,1.209.548,1.534,1.534,0,0,0,1.2-.55,2.5,2.5,0,0,0,.48-1.68,2.367,2.367,0,0,0-.484-1.611,1.536,1.536,0,0,0-1.2-.548,1.543,1.543,0,0,0-1.209.545A2.429,2.429,0,0,0,1214.168-142.9Zm1.149-3.579.719-1.512h1.274l-1.187,1.512Z" transform="translate(-1109.119 148.079)"/><path class="b" d="M1220.491-139.707v-5.734h.875v.816a2.059,2.059,0,0,1,1.824-.945,2.4,2.4,0,0,1,.953.185,1.507,1.507,0,0,1,.65.489,1.872,1.872,0,0,1,.3.718,5.5,5.5,0,0,1,.055.945v3.526h-.972V-143.2a2.6,2.6,0,0,0-.114-.887.936.936,0,0,0-.4-.47,1.276,1.276,0,0,0-.677-.176,1.576,1.576,0,0,0-1.072.394,1.943,1.943,0,0,0-.451,1.5v3.131Z" transform="translate(-1110.095 147.757)"/><path class="b" d="M1115.91-125.468v-.724a1.783,1.783,0,0,1-1.6.853,2.248,2.248,0,0,1-1.261-.378,2.491,2.491,0,0,1-.891-1.056,3.646,3.646,0,0,1-.315-1.557,4.081,4.081,0,0,1,.286-1.557,2.256,2.256,0,0,1,.859-1.072,2.3,2.3,0,0,1,1.279-.373,1.9,1.9,0,0,1,.923.219,1.923,1.923,0,0,1,.659.569v-2.84h.966v7.915Zm-3.072-2.862a2.492,2.492,0,0,0,.465,1.647,1.4,1.4,0,0,0,1.1.545,1.374,1.374,0,0,0,1.083-.521,2.4,2.4,0,0,0,.446-1.59,2.7,2.7,0,0,0-.454-1.727,1.392,1.392,0,0,0-1.117-.551,1.347,1.347,0,0,0-1.082.53A2.614,2.614,0,0,0,1112.837-128.329Z" transform="translate(-1095.608 146.132)"/><path class="b" d="M1123.023-127l1,.124a2.445,2.445,0,0,1-.88,1.366,2.645,2.645,0,0,1-1.641.486,2.624,2.624,0,0,1-2-.775,3.031,3.031,0,0,1-.737-2.173,3.17,3.17,0,0,1,.745-2.246,2.523,2.523,0,0,1,1.933-.8,2.449,2.449,0,0,1,1.879.783,3.112,3.112,0,0,1,.729,2.2c0,.058,0,.144-.005.259h-4.276a2.2,2.2,0,0,0,.535,1.447,1.589,1.589,0,0,0,1.2.5,1.486,1.486,0,0,0,.913-.281A1.864,1.864,0,0,0,1123.023-127Zm-3.191-1.571h3.2a1.946,1.946,0,0,0-.367-1.085,1.492,1.492,0,0,0-1.2-.562,1.543,1.543,0,0,0-1.125.448A1.774,1.774,0,0,0,1119.832-128.57Z" transform="translate(-1096.533 145.816)"/><path class="b" d="M1129.573-125.468v-7.915h5.724v.934h-4.676v2.424H1135v.928h-4.378v2.694h4.859v.934Z" transform="translate(-1097.973 146.132)"/><path class="b" d="M1137.723-125.152v-5.734h.875v.816a2.062,2.062,0,0,1,1.825-.946,2.394,2.394,0,0,1,.952.186,1.5,1.5,0,0,1,.651.489,1.888,1.888,0,0,1,.3.718,5.618,5.618,0,0,1,.054.945v3.526h-.972v-3.488a2.621,2.621,0,0,0-.114-.887.932.932,0,0,0-.4-.47,1.28,1.28,0,0,0-.678-.176,1.574,1.574,0,0,0-1.071.394,1.943,1.943,0,0,0-.451,1.495v3.132Z" transform="translate(-1099.059 145.816)"/><path class="b" d="M1148.5-127l1,.124a2.45,2.45,0,0,1-.881,1.366,2.643,2.643,0,0,1-1.641.486,2.622,2.622,0,0,1-1.994-.775,3.027,3.027,0,0,1-.737-2.173,3.17,3.17,0,0,1,.745-2.246,2.523,2.523,0,0,1,1.933-.8,2.449,2.449,0,0,1,1.879.783,3.108,3.108,0,0,1,.729,2.2c0,.058,0,.144-.005.259h-4.276a2.2,2.2,0,0,0,.535,1.447,1.59,1.59,0,0,0,1.2.5,1.483,1.483,0,0,0,.912-.281A1.858,1.858,0,0,0,1148.5-127Zm-3.191-1.571h3.2a1.941,1.941,0,0,0-.367-1.085,1.489,1.489,0,0,0-1.2-.562,1.546,1.546,0,0,0-1.126.448A1.777,1.777,0,0,0,1145.311-128.57Z" transform="translate(-1099.93 145.816)"/><path class="b" d="M1151.519-125.152v-5.734h.874v.869a2.355,2.355,0,0,1,.618-.8,1.077,1.077,0,0,1,.624-.2,1.894,1.894,0,0,1,1,.314l-.334.9a1.39,1.39,0,0,0-.712-.211.929.929,0,0,0-.573.192,1.041,1.041,0,0,0-.361.532,3.77,3.77,0,0,0-.162,1.134v3Z" transform="translate(-1100.899 145.816)"/><path class="b" d="M1155.353-124.677l.945.14a.9.9,0,0,0,.329.637,1.621,1.621,0,0,0,.988.27,1.738,1.738,0,0,0,1.042-.27,1.334,1.334,0,0,0,.5-.756,6.222,6.222,0,0,0,.07-1.247,2,2,0,0,1-1.587.751,2.162,2.162,0,0,1-1.83-.854,3.286,3.286,0,0,1-.648-2.046,3.814,3.814,0,0,1,.3-1.514,2.375,2.375,0,0,1,.861-1.072,2.328,2.328,0,0,1,1.325-.378,2.056,2.056,0,0,1,1.673.821v-.691h.9v4.956a4.716,4.716,0,0,1-.272,1.9,2,2,0,0,1-.864.883,3,3,0,0,1-1.455.323,2.743,2.743,0,0,1-1.657-.461A1.56,1.56,0,0,1,1155.353-124.677Zm.8-3.445a2.485,2.485,0,0,0,.448,1.647,1.423,1.423,0,0,0,1.123.518,1.433,1.433,0,0,0,1.122-.516,2.4,2.4,0,0,0,.454-1.616,2.354,2.354,0,0,0-.467-1.588,1.444,1.444,0,0,0-1.126-.535,1.4,1.4,0,0,0-1.1.527A2.336,2.336,0,0,0,1156.157-128.122Z" transform="translate(-1101.384 145.816)"/><path class="b" d="M1162.829-131.921l.718-1.512h1.274l-1.187,1.512Zm.048,6.446v-5.734h.972v5.734Z" transform="translate(-1102.407 146.138)"/><path class="b" d="M1169.536-125.859a3.624,3.624,0,0,1-1.039.647,3.007,3.007,0,0,1-1.071.189,2.085,2.085,0,0,1-1.453-.462,1.524,1.524,0,0,1-.508-1.18,1.562,1.562,0,0,1,.192-.769,1.581,1.581,0,0,1,.5-.559,2.364,2.364,0,0,1,.7-.319,6.97,6.97,0,0,1,.863-.146,8.917,8.917,0,0,0,1.733-.335c0-.133.005-.218.005-.254a1.073,1.073,0,0,0-.275-.836,1.627,1.627,0,0,0-1.108-.33,1.717,1.717,0,0,0-1.012.241,1.468,1.468,0,0,0-.483.85l-.95-.13a2.336,2.336,0,0,1,.426-.985,1.865,1.865,0,0,1,.858-.578,3.825,3.825,0,0,1,1.3-.2,3.442,3.442,0,0,1,1.193.173,1.577,1.577,0,0,1,.675.434,1.54,1.54,0,0,1,.3.661,5.526,5.526,0,0,1,.048.9v1.3a13.915,13.915,0,0,0,.062,1.714,2.173,2.173,0,0,0,.246.689h-1.015A2.067,2.067,0,0,1,1169.536-125.859Zm-.081-2.171a7.124,7.124,0,0,1-1.587.367,3.679,3.679,0,0,0-.849.194.845.845,0,0,0-.383.316.828.828,0,0,0-.135.461.831.831,0,0,0,.295.648,1.268,1.268,0,0,0,.861.259,2,2,0,0,0,1-.246,1.509,1.509,0,0,0,.642-.672,2.34,2.34,0,0,0,.157-.972Z" transform="translate(-1102.758 145.816)"/><path class="b" d="M1175.975-122.924l-.108-.913a2.181,2.181,0,0,0,.556.086,1.07,1.07,0,0,0,.518-.107.886.886,0,0,0,.318-.3,4.756,4.756,0,0,0,.3-.724c.018-.054.047-.133.087-.237l-2.176-5.744h1.048l1.193,3.32q.233.632.416,1.328a13.289,13.289,0,0,1,.4-1.306l1.225-3.342h.972l-2.181,5.831a11.612,11.612,0,0,1-.545,1.3,1.919,1.919,0,0,1-.595.7,1.4,1.4,0,0,1-.8.224A1.949,1.949,0,0,1,1175.975-122.924Z" transform="translate(-1104.092 145.796)"/><path class="b" d="M1189.449-128.593v-.929l3.353-.005v2.937a5.934,5.934,0,0,1-1.593.926,4.717,4.717,0,0,1-1.685.31,4.5,4.5,0,0,1-2.119-.5,3.3,3.3,0,0,1-1.438-1.444,4.546,4.546,0,0,1-.486-2.111,4.9,4.9,0,0,1,.484-2.157,3.215,3.215,0,0,1,1.39-1.487,4.353,4.353,0,0,1,2.089-.485,4.139,4.139,0,0,1,1.552.277,2.575,2.575,0,0,1,1.088.775,3.444,3.444,0,0,1,.6,1.3l-.946.259a2.935,2.935,0,0,0-.442-.95,1.821,1.821,0,0,0-.757-.554,2.77,2.77,0,0,0-1.09-.208,3.217,3.217,0,0,0-1.242.219,2.314,2.314,0,0,0-.845.575,2.739,2.739,0,0,0-.5.783,4.157,4.157,0,0,0-.3,1.593,3.854,3.854,0,0,0,.365,1.771,2.323,2.323,0,0,0,1.061,1.058,3.284,3.284,0,0,0,1.479.346,3.52,3.52,0,0,0,1.328-.262,3.4,3.4,0,0,0,.983-.559v-1.473Z" transform="translate(-1105.427 146.152)"/><path class="b" d="M1199.067-125.859a3.644,3.644,0,0,1-1.04.647,3.008,3.008,0,0,1-1.071.189,2.086,2.086,0,0,1-1.453-.462,1.523,1.523,0,0,1-.507-1.18,1.561,1.561,0,0,1,.192-.769,1.58,1.58,0,0,1,.5-.559,2.361,2.361,0,0,1,.7-.319,6.967,6.967,0,0,1,.863-.146,8.919,8.919,0,0,0,1.733-.335c0-.133.005-.218.005-.254a1.069,1.069,0,0,0-.275-.836,1.625,1.625,0,0,0-1.107-.33,1.713,1.713,0,0,0-1.012.241,1.468,1.468,0,0,0-.484.85l-.95-.13a2.334,2.334,0,0,1,.426-.985,1.866,1.866,0,0,1,.858-.578,3.826,3.826,0,0,1,1.3-.2,3.438,3.438,0,0,1,1.193.173,1.575,1.575,0,0,1,.675.434,1.539,1.539,0,0,1,.3.661,5.507,5.507,0,0,1,.049.9v1.3a13.676,13.676,0,0,0,.062,1.714,2.153,2.153,0,0,0,.245.689h-1.015A2.048,2.048,0,0,1,1199.067-125.859Zm-.081-2.171a7.115,7.115,0,0,1-1.587.367,3.653,3.653,0,0,0-.848.194.847.847,0,0,0-.384.316.833.833,0,0,0-.134.461.83.83,0,0,0,.294.648,1.27,1.27,0,0,0,.861.259,2,2,0,0,0,1-.246,1.5,1.5,0,0,0,.642-.672,2.341,2.341,0,0,0,.157-.972Z" transform="translate(-1106.696 145.816)"/><path class="b" d="M1201.831-126.864l.961-.152a1.345,1.345,0,0,0,.451.886,1.571,1.571,0,0,0,1.034.308,1.516,1.516,0,0,0,.993-.273.814.814,0,0,0,.324-.64.591.591,0,0,0-.286-.518,4.271,4.271,0,0,0-.993-.329,8.925,8.925,0,0,1-1.482-.467,1.43,1.43,0,0,1-.627-.545,1.442,1.442,0,0,1-.213-.769,1.48,1.48,0,0,1,.175-.711,1.578,1.578,0,0,1,.478-.543,2.028,2.028,0,0,1,.618-.283,2.95,2.95,0,0,1,.84-.116,3.307,3.307,0,0,1,1.185.2,1.612,1.612,0,0,1,.753.526,2.048,2.048,0,0,1,.335.888l-.95.129a1.039,1.039,0,0,0-.375-.691,1.373,1.373,0,0,0-.877-.249,1.585,1.585,0,0,0-.956.222.643.643,0,0,0-.286.518.537.537,0,0,0,.119.34.853.853,0,0,0,.373.259q.146.055.858.249a11.958,11.958,0,0,1,1.439.451,1.458,1.458,0,0,1,.64.51,1.426,1.426,0,0,1,.231.831,1.632,1.632,0,0,1-.283.915,1.834,1.834,0,0,1-.817.664,2.975,2.975,0,0,1-1.21.235,2.689,2.689,0,0,1-1.7-.465A2.158,2.158,0,0,1,1201.831-126.864Z" transform="translate(-1107.607 145.816)"/></g></g></svg>